<?xml version="1.0" encoding="UTF-8"?><svg id="Layer_1" xmlns="http://www.w3.org/2000/svg" viewBox="0 0 210.13 169.73"><defs><style>.cls-1{fill:#f1ab2c;}.cls-2{fill:#1a1617;}.cls-3{fill:#9d2816;}</style></defs><path class="cls-3" d="M17.88,153.43v15.66H8.4v-39.1h9.75c2.77,0,5.15,.33,7.14,.99,1.99,.66,3.52,1.8,4.58,3.44,1.07,1.63,1.6,3.94,1.6,6.93,0,2.1-.32,4.05-.96,5.86-.64,1.81-1.79,3.25-3.46,4.32l5.97,17.58h-10.07l-4.48-15.66h-.59Zm0-7.67h.85c.96,0,1.72-.27,2.29-.8,.57-.53,.85-1.51,.85-2.93,0-1.56-.29-2.57-.88-3.01-.59-.44-1.2-.67-1.84-.67h-1.28v7.41Z"/><path class="cls-3" d="M54.11,145.17v8.15h-9.06v7.41h11.08v8.36h-20.62v-39.1h19.66v8.36h-10.12v6.82h9.06Z"/><path class="cls-3" d="M166.25,169.09h-8.95v-39.1h9.06c4.01,0,7.16,.68,9.43,2.05,2.27,1.37,3.88,3.44,4.82,6.21,.94,2.77,1.41,6.29,1.41,10.55,0,4.48-.48,8.21-1.44,11.21-.96,3-2.58,5.27-4.87,6.79-2.29,1.53-5.44,2.29-9.46,2.29Zm.53-8.1h.8c1.1,0,1.98-.33,2.64-.99s1.15-1.84,1.47-3.54c.32-1.7,.48-4.12,.48-7.25,0-2.45-.11-4.42-.32-5.91-.21-1.49-.52-2.62-.91-3.38-.39-.76-.86-1.28-1.41-1.55-.55-.27-1.18-.4-1.89-.4h-.85v23.02Z"/><path class="cls-3" d="M208.07,142.08l-9.22,.91c.04-2.2-.14-3.71-.53-4.53-.39-.82-.98-1.23-1.76-1.23-.64,0-1.1,.2-1.39,.59-.28,.39-.43,.87-.43,1.44,0,1.28,.4,2.29,1.2,3.04s1.86,1.53,3.17,2.34c1.07,.6,2.17,1.27,3.3,2,1.14,.73,2.2,1.58,3.2,2.56,.99,.98,1.8,2.15,2.42,3.52,.62,1.37,.93,2.99,.93,4.87,0,2.77-.51,5.05-1.52,6.85-1.01,1.79-2.41,3.13-4.18,4-1.78,.87-3.8,1.3-6.07,1.3-4.37,0-7.49-1.1-9.35-3.3-1.86-2.2-2.85-5.38-2.96-9.54l9.75-1.07c.04,1.7,.18,2.99,.43,3.86,.25,.87,.6,1.47,1.07,1.78,.46,.32,.99,.48,1.6,.48,1.17,0,1.76-.83,1.76-2.5,0-1.46-.55-2.6-1.65-3.44-1.1-.83-2.42-1.66-3.94-2.48-1.03-.6-2.08-1.24-3.14-1.92-1.07-.67-2.04-1.48-2.93-2.42-.89-.94-1.6-2.08-2.13-3.41-.53-1.33-.8-2.92-.8-4.77,0-3.8,1.15-6.71,3.46-8.74,2.31-2.02,5.31-3.04,9-3.04s6.45,1.06,8.18,3.17c1.72,2.11,2.57,5.34,2.53,9.67Z"/><g><path class="cls-3" d="M92.13,141.87s.03,0,.05,0l7.08,.12,1.85-12h-10.02l-.88,12.74c.48-.53,1.17-.86,1.92-.86Z"/><path class="cls-3" d="M90.58,146.56c-.24-.18-.44-.39-.6-.62l-.87,12.66h-.21l-3.89-28.61h-10.82l-3.68,28.82h-.32l-2.24-28.82h-10.34l6.61,39.1h12.47l2.61-25.31h.27l3.09,25.31h12.41l2.65-17.24-7.15-5.29Z"/></g><path class="cls-3" d="M148.78,151.51c1.67-1.07,2.82-2.5,3.46-4.32,.64-1.81,.96-3.76,.96-5.86,0-2.98-.53-5.29-1.6-6.93-1.07-1.63-2.59-2.78-4.58-3.44-1.99-.66-4.37-.99-7.14-.99h-9.75v12.58l3.85,.08c1.13,.02,2.12,.77,2.44,1.86,.32,1.09-.09,2.26-1.03,2.89l-5.26,3.58v18.11h9.48v-15.66h.59l4.48,15.66h10.07l-5.97-17.58Zm-6.02-6.55c-.57,.53-1.33,.8-2.29,.8h-.85v-7.41h1.28c.64,0,1.25,.22,1.84,.67,.59,.44,.88,1.45,.88,3.01,0,1.42-.28,2.4-.85,2.93Z"/><g><polygon class="cls-1" points="99.86 168.3 112.73 159.54 112.8 159.59 125.25 168.79 113.27 130.35 108.2 144.79 104.95 153.9 99.86 168.3"/><polygon class="cls-1" points="92.53 144.61 103.7 152.86 106.53 144.85 92.53 144.61"/><polygon class="cls-1" points="133.52 145.37 119.45 145.09 121.99 153.22 133.52 145.37"/></g><polygon class="cls-2" points="0 12.4 0 35.78 18.46 35.78 18.46 121.54 44.96 121.54 44.96 35.78 67.44 35.78 67.44 121.54 125.06 121.54 125.06 98.31 94.1 98.31 94.1 77.62 119.41 77.62 119.41 54.84 94.1 54.84 94.1 35.78 136.04 35.78 147.54 66 126.64 121.54 156.87 121.54 166.45 86.4 167.05 86.4 177.02 121.54 206.95 121.54 187 65.56 210.13 0 181.24 0 167.64 45.9 166.9 45.9 156.92 12.4 0 12.4"/></svg>