<?xml version="1.0" encoding="UTF-8"?><svg id="Layer_1" xmlns="http://www.w3.org/2000/svg" viewBox="0 0 198.52 145.53"><defs><style>.cls-1{fill:#f1ab2c;}.cls-2{fill:#1a1617;}.cls-3{fill:#9d2816;}</style></defs><path class="cls-3" d="M16.21,145.53c-9.63,0-14.44-3.73-14.44-11.18,0-1.75,.22-3.48,.66-5.2l7.46-1.18c-.72,1.6-1.08,3.5-1.08,5.69,0,2.31,.62,3.96,1.87,4.95,1.24,.99,3.31,1.49,6.19,1.49h3.16v-11.84h6.98v17.28h-10.8Zm-6.57-20.18c-.6-.63-.9-1.4-.9-2.3s.3-1.66,.9-2.28c.61-.65,1.35-.97,2.22-.97s1.65,.32,2.26,.97c.6,.62,.9,1.38,.9,2.28s-.3,1.66-.9,2.3c-.61,.65-1.36,.97-2.26,.97s-1.61-.32-2.22-.97Zm7.07,0c-.61-.63-.91-1.4-.91-2.3s.3-1.66,.91-2.28c.61-.65,1.36-.97,2.24-.97s1.63,.32,2.22,.97c.61,.62,.91,1.38,.91,2.28s-.3,1.66-.91,2.3c-.6,.65-1.34,.97-2.22,.97s-1.63-.32-2.24-.97Z"/><path class="cls-3" d="M27.55,115.34l4.74-3.46c.91,.91,2.07,1.36,3.5,1.36s2.61-.45,3.71-1.36v4.7c-1.1,.93-2.45,1.4-4.05,1.4-1.3,0-2.38-.38-3.23-1.13l-2.46,1.65-2.21-3.16Zm3.3,4.29h6.98v20.47h3.14v5.44h-10.12v-25.91Z"/><path class="cls-3" d="M35.61,140.09h7.68v5.44h-7.68v-5.44Z"/><path class="cls-3" d="M42.56,140.09h7.19v5.44h-7.19v-5.44Z"/><path class="cls-3" d="M110.08,145.53v-5.44h.91c.94,0,1.58,.11,1.92,.32-.72-.86-1.08-2.15-1.08-3.86,0-2.45,.84-4.5,2.51-6.14,1.84-1.81,4.36-2.71,7.55-2.71s5.36,.83,6.89,2.49c1.36,1.48,2.05,3.55,2.05,6.21v9.11h-20.76Zm13.99-8.45c0-2.62-.86-3.93-2.57-3.93-.87,0-1.57,.34-2.08,1-.48,.62-.72,1.4-.72,2.33,0,2.4,1.26,3.61,3.79,3.61h1.58v-3.01Z"/><path class="cls-3" d="M135.8,119.62h6.98v20.47h3.12v5.44h-10.1v-25.91Z"/><path class="cls-3" d="M145,140.09h6.21v5.44h-6.21v-5.44Z"/><path class="cls-3" d="M150.47,140.09h7.68v5.44h-7.68v-5.44Z"/><path class="cls-3" d="M157.41,140.09h-5.81v5.44h5.81v-5.44Z"/><path class="cls-3" d="M151.28,140.09h9.6c-.19-1.85-.96-3.42-2.31-4.7-1.42-1.35-3.34-2.2-5.74-2.55v-5.06l15.43-9.67v6.87l-7.5,4.38c4.03,2.06,6.31,5.63,6.84,10.73h2.35v5.44h-18.66v-5.44Z"/><path class="cls-3" d="M169.39,145.53v-5.44h.91c.94,0,2.73,.11,3.07,.32-.72-.86-1.08-2.15-1.08-3.86,0-2.45,.84-4.5,2.51-6.14,1.84-1.81,4.36-2.71,7.55-2.71s5.36,.83,6.89,2.49c1.36,1.48,2.05,3.55,2.05,6.21v9.11h-21.91Zm15.14-8.45c0-2.62-.86-3.93-2.57-3.93-.87,0-1.57,.34-2.08,1-.48,.62-.72,1.4-.72,2.33,0,2.4,1.26,3.61,3.79,3.61h1.58v-3.01Z"/><g><path class="cls-2" d="M106.53,88.6l82.45-.03-.02-57.86h-19.71s.02,36.59,.02,36.59c0,.41-.33,.74-.74,.74h-4.54s-.5-.74-.5-.74l-29.11-47.78h19.26S172.17,0,172.17,0l-61.97,.03V19.73s27.03,47.55,27.03,47.55c0,.41-.33,.74-.74,.74h-29.06c-.41,.01-.74-.32-.74-.73l-.02-36.55h-.14v57.86Z"/><path class="cls-2" d="M106.67,30.74h-17.31s.02,36.58,.02,36.58c0,.41-.33,.74-.74,.74h-4.82c-.41,0-.74-.33-.74-.74v-28.19s-19.72,0-19.72,0v28.19c.01,.41-.32,.74-.73,.74h-4.82c-.41,0-.74-.33-.74-.74l-.02-36.58h-19.71s.02,47.29,.02,47.29c0,4.07-3.3,7.37-7.37,7.37s-7.37-3.78-7.37-11.73l-.02-54.13H0c0,13.37,.01,25.98,.02,40.91,0,14.94,1.15,36.17,17.45,42.14,6.19,2.27,13.01,2.36,19.53,1.39,9.19-1.38,17.57-5.82,20.08-15.38l49.6-.02V30.74Z"/><rect class="cls-2" x="182.53" y="10.43" width="13.27" height="13.19" transform="translate(43.42 138.81) rotate(-45.02)"/><rect class="cls-2" x="163.87" y="10.39" width="13.19" height="13.27" transform="translate(37.93 125.58) rotate(-45.02)"/></g><path class="cls-3" d="M16.71,125.35c-.61-.63-.91-1.4-.91-2.3s.3-1.66,.91-2.28c.61-.65,1.36-.97,2.24-.97s1.63,.32,2.22,.97c.61,.62,.91,1.38,.91,2.28s-.3,1.66-.91,2.3c-.6,.65-1.34,.97-2.22,.97s-1.63-.32-2.24-.97Z"/><path class="cls-3" d="M120.4,125.35c-.61-.63-.91-1.4-.91-2.3s.3-1.66,.91-2.28c.61-.65,1.36-.97,2.24-.97s1.63,.32,2.22,.97c.61,.62,.91,1.38,.91,2.28s-.3,1.66-.91,2.3c-.6,.65-1.34,.97-2.22,.97s-1.63-.32-2.24-.97Z"/><g><path class="cls-3" d="M90.51,140.09l1.49,4.77c.07,.22,.06,.45,.02,.66h18.06v-5.44h-19.57Z"/><polygon class="cls-3" points="88.84 145.53 81.49 140.09 77.59 140.09 69.61 145.53 88.84 145.53"/><path class="cls-3" d="M67.01,144.39l1.52-4.3h-19.51v5.44h18.12c-.21-.34-.27-.75-.13-1.14Z"/></g><polygon class="cls-1" points="98.05 124.54 85.6 124.29 87.85 131.49 98.05 124.54"/><g><polygon class="cls-1" points="68.26 144.84 79.65 137.08 79.72 137.13 90.73 145.27 80.13 111.25 75.65 124.03 72.77 132.09 68.26 144.84"/><polygon class="cls-1" points="61.78 123.87 71.66 131.17 74.17 124.08 61.78 123.87"/></g></svg>