<svg id="Component_1_1" data-name="Component 1 – 1" xmlns="http://www.w3.org/2000/svg" width="256.327" height="242.765" viewBox="0 0 256.327 242.765">
  <path id="Path_1" data-name="Path 1" d="M-1445.819,875.033c2.565-9.481-3.914-19.873-15.083-24.746.918-3.205,1.755-6.451,2.375-9.792a72.919,72.919,0,0,0,1.453-16.416,43.537,43.537,0,0,0-4.181-17.888l-.191-.391a8.73,8.73,0,0,0-1.1-1.679,9.035,9.035,0,0,0-12.493-1.244,8.518,8.518,0,0,0-1.274,12.188,28.355,28.355,0,0,1,5.072,10.766,60.748,60.748,0,0,1,1.784,13.779c.1,2.717.035,5.472-.108,8.24-9.86-1.326-19.1,2.144-23.511,8.842-11.961.107-34.561,4.554-47.071,34.209a73.659,73.659,0,0,0-3.557,11.45c-.757,3.146-1.639,6.287-2.668,9.417-18.719,56.936-75.2,91.766-133.8,86.661-7.609-.665-11.37,8.741-5.3,13.266a162.278,162.278,0,0,0,69.821,29.687c76.125,13.1,151.595-30.566,177.425-101.636C-1426.276,906.876-1433.677,887-1445.819,875.033ZM-1492.31,988.66a150.13,150.13,0,0,1-77.235,36.177,155.038,155.038,0,0,1-15.874,1.613,5.34,5.34,0,0,1-5.653-4.979,5.358,5.358,0,0,1,5.107-5.514,144.587,144.587,0,0,0,14.74-1.5,139.248,139.248,0,0,0,71.649-33.561,5.5,5.5,0,0,1,7.61.34A5.166,5.166,0,0,1-1492.31,988.66Zm22.774-25.614c-2.191,3.131-4.532,6.22-6.964,9.176a5.408,5.408,0,0,1-3.36,1.9,5.478,5.478,0,0,1-4.214-1.09,5.171,5.171,0,0,1-.831-7.391c2.258-2.742,4.431-5.607,6.463-8.518a5.474,5.474,0,0,1,7.486-1.382A5.179,5.179,0,0,1-1469.536,963.046Z" transform="translate(1688.487 -800.931)" fill="#221f1c"/>
</svg>
