<?xml version="1.0" encoding="UTF-8"?><svg id="Layer_1" xmlns="http://www.w3.org/2000/svg" viewBox="0 0 587.07 176.44"><defs><style>.cls-1,.cls-2{fill:#fff;}.cls-2{font-family:TabletGothicCondensed-Heavy, 'Tablet Gothic Condensed';font-size:127.52px;letter-spacing:.03em;}.cls-3{fill:#952816;}</style></defs><rect class="cls-3" width="587.07" height="176.44" rx="29.11" ry="29.11"/><path class="cls-1" d="M163.74,64.88c-3.14-7.28-7.41-13.61-12.79-19-5.39-5.39-11.72-9.65-19-12.79s-15.06-4.71-23.34-4.71-15.91,1.57-23.19,4.71-13.64,7.41-19.07,12.79c-5.44,5.39-9.72,11.72-12.87,19-3.14,7.28-4.71,15.06-4.71,23.34s1.57,15.91,4.71,23.19c3.14,7.28,7.43,13.64,12.87,19.07,5.44,5.44,11.79,9.72,19.07,12.87,7.28,3.14,15.01,4.71,23.19,4.71s16.06-1.57,23.34-4.71c7.28-3.14,13.61-7.43,19-12.87s9.65-11.79,12.79-19.07c3.14-7.28,4.71-15.01,4.71-23.19s-1.57-16.06-4.71-23.34Zm-13.24,27.82H66.72v-8.98h83.78v8.98Z"/><text class="cls-2" transform="translate(217.23 135.73)"><tspan x="0" y="0">500</tspan></text><g><polygon class="cls-1" points="473.84 124.09 498.48 107.3 498.63 107.41 522.46 125.02 499.51 51.42 489.81 79.06 483.58 96.51 473.84 124.09"/><polygon class="cls-1" points="459.81 78.71 481.19 94.52 486.62 79.18 459.81 78.71"/><polygon class="cls-1" points="538.29 80.17 511.36 79.64 516.22 95.21 538.29 80.17"/></g></svg>