<?xml version="1.0" encoding="UTF-8"?><svg id="Layer_1" xmlns="http://www.w3.org/2000/svg" viewBox="0 0 587.07 176.44"><defs><style>.cls-1,.cls-2{fill:#fff;}.cls-2{font-family:TabletGothicCondensed-Heavy, 'Tablet Gothic Condensed';font-size:127.52px;letter-spacing:.03em;}.cls-3{fill:#1a1617;}</style></defs><rect class="cls-3" width="587.07" height="176.44" rx="29.11" ry="29.11"/><path class="cls-1" d="M99.79,115.45l42.34-42.34-6.88-6.73-35.46,35.46-17.95-17.95-6.73,6.73,24.68,24.83Zm8.83,32.61c-8.18,0-15.91-1.57-23.19-4.71-7.28-3.14-13.64-7.43-19.07-12.87-5.44-5.44-9.72-11.79-12.87-19.07-3.14-7.28-4.71-15.01-4.71-23.19s1.57-16.06,4.71-23.34c3.14-7.28,7.43-13.61,12.87-19,5.44-5.39,11.79-9.65,19.07-12.79,7.28-3.14,15.01-4.71,23.19-4.71s16.06,1.57,23.34,4.71c7.28,3.14,13.61,7.41,19,12.79,5.39,5.39,9.65,11.72,12.79,19,3.14,7.28,4.71,15.06,4.71,23.34s-1.57,15.91-4.71,23.19c-3.14,7.28-7.41,13.64-12.79,19.07-5.39,5.44-11.72,9.72-19,12.87-7.28,3.14-15.06,4.71-23.34,4.71Z"/><text class="cls-2" transform="translate(217.23 135.73)"><tspan x="0" y="0">300</tspan></text><g><polygon class="cls-1" points="492.59 124.09 517.23 107.3 517.38 107.41 541.21 125.02 518.27 51.42 508.56 79.06 502.34 96.51 492.59 124.09"/><polygon class="cls-1" points="478.56 78.71 499.95 94.52 505.37 79.18 478.56 78.71"/><polygon class="cls-1" points="557.05 80.17 530.11 79.64 534.97 95.21 557.05 80.17"/></g></svg>