<svg xmlns="http://www.w3.org/2000/svg" width="22.051" height="24.769" viewBox="0 0 22.051 24.769" style="filter: grayscale(1);">
  <g id="Group_3486" data-name="Group 3486" transform="translate(-1097.15 -133.549)">
    <g id="Group_3474" data-name="Group 3474" transform="translate(1097.15 133.549)">
      <path id="Path_1597" data-name="Path 1597" d="M50.752,11.846l2.719,6.042V33.8H48.033V17.887Z" transform="translate(-31.419 -9.027)" fill="#f8b02d"/>
      <path id="Path_1598" data-name="Path 1598" d="M46.724,8.414h-14.6a1.007,1.007,0,0,0-1.007,1.007v1.812H47.731V9.421a1.007,1.007,0,0,0-1.007-1.007" transform="translate(-28.399 -8.414)" fill="#f2f2f2"/>
      <path id="Path_1599" data-name="Path 1599" d="M27.808,17.887V33.8H44.421V17.887l2.719-6.042H30.527Z" transform="translate(-27.808 -9.027)" fill="#f2f2f2"/>
    </g>
    <g id="Texas_logo" data-name="Texas logo" transform="translate(1098.231 143.17)">
      <g id="Group_1909" data-name="Group 1909" transform="translate(0.718 0)">
        <path id="Path_1425" data-name="Path 1425" d="M77.721,77.451a5.515,5.515,0,0,1,9.557-1.362l1.226-.175a6.626,6.626,0,0,0-12.01,1.711Z" transform="translate(-76.495 -72.784)" fill="#f6b318"/>
        <path id="Path_1426" data-name="Path 1426" d="M103.268,250.986a5.514,5.514,0,0,1-8.428.117l-1.267.18a6.627,6.627,0,0,0,11.186-.511Z" transform="translate(-92.623 -240.863)" fill="#f6b318"/>
      </g>
      <g id="Group_1910" data-name="Group 1910" transform="translate(7.357 8.51)">
        <path id="Path_1427" data-name="Path 1427" d="M196.184,242.332h0l-.03-.153a.289.289,0,0,0-.074,0c-.134.019-.194.075-.153.361.036.253.108.29.258.269a.65.65,0,0,0,.172-.051l.038.126a.956.956,0,0,1-.219.062c-.252.036-.378-.029-.428-.376-.054-.378.07-.486.32-.522a.771.771,0,0,1,.2,0l.036.268Z" transform="translate(-195.736 -241.128)" fill="#2d2a26"/>
        <path id="Path_1428" data-name="Path 1428" d="M211.612,239.613h0l.1-.02-.09-.634-.1.01-.016-.113.377-.054.016.113-.1.018.034.238.335-.048-.034-.238-.1.01-.016-.113.375-.053.017.113-.1.02.091.634.1-.01.016.113-.376.053-.016-.113.1-.018-.037-.263-.335.048.037.263.1-.01.016.113-.377.054Z" transform="translate(-210.626 -237.999)" fill="#2d2a26"/>
        <path id="Path_1429" data-name="Path 1429" d="M233.735,237.69h0l.1-.02-.09-.634-.1.01-.016-.113.385-.055.016.113-.1.02.09.635.1-.01.016.113-.385.055Z" transform="translate(-231.517 -236.252)" fill="#2d2a26"/>
        <path id="Path_1430" data-name="Path 1430" d="M248.437,234.891h0l-.03-.153a.292.292,0,0,0-.074,0c-.134.019-.194.075-.153.361.036.253.108.29.258.269a.65.65,0,0,0,.172-.051l.038.126a.956.956,0,0,1-.219.062c-.252.036-.378-.029-.428-.376-.054-.378.07-.486.32-.522a.767.767,0,0,1,.2,0l.036.268Z" transform="translate(-245.08 -234.101)" fill="#2d2a26"/>
        <path id="Path_1431" data-name="Path 1431" d="M263.856,232.344h0l.1-.02-.091-.634-.1.01-.016-.113.357-.051.016.109-.076.013.042.293.222-.329-.082.007-.016-.109.357-.051.016.113-.071.014-.232.337.337.3.074-.008.016.113-.37.052-.016-.108.081-.014-.313-.277.045.316.077-.009.015.109-.357.051Z" transform="translate(-259.961 -231.144)" fill="#2d2a26"/>
        <path id="Path_1432" data-name="Path 1432" d="M284.855,229.54h0l-.017-.072-.19.027.037.26.251-.036-.009-.106.121-.018.033.231-.659.094-.016-.113.1-.02-.09-.635-.1.01-.016-.113.659-.094.031.224-.121.018-.02-.1-.251.036.035.243.19-.027,0-.072.109-.015.037.26Z" transform="translate(-279.367 -228.772)" fill="#2d2a26"/>
        <path id="Path_1433" data-name="Path 1433" d="M302.632,226.634h0l-.016-.113.1-.02-.09-.634-.1.01-.016-.113.337-.048.317.421a2.474,2.474,0,0,1,.152.231h0c-.021-.085-.041-.177-.052-.246l-.049-.342-.1.01-.016-.112.346-.049.016.113-.093.017.107.753-.231.033-.319-.421a2.483,2.483,0,0,1-.152-.231h-.005c.021.085.043.177.052.246l.049.342.1-.01.016.112Z" transform="translate(-296.563 -225.63)" fill="#2d2a26"/>
      </g>
      <path id="Path_1434" data-name="Path 1434" d="M75.958,136.324a.238.238,0,0,1,.187.044c.107.081.176.266.223.6l1.018-.25a1.621,1.621,0,0,0-.522-1.115,1.211,1.211,0,0,0-.938-.176,1.555,1.555,0,0,0-1.005.506,1.349,1.349,0,0,0-.256,1.08c.125.872.734,1.108,1.27,1.316l.006,0c.4.148.742.275.794.641a.433.433,0,0,1-.023.259.22.22,0,0,1-.176.113c-.28.041-.426-.149-.512-.672l-1.052.271a.037.037,0,0,1-.044-.023l-1.133-3.008-1.4.2-.241,3.973a.037.037,0,0,1-.07.016l-.824-1.565a.037.037,0,0,1,0-.025l.606-2.891-1.2.168-.289,2.011a.037.037,0,0,1-.031.032l-.032,0a.038.038,0,0,1-.039-.021l-.611-1.32-6.052.856.134.93.766-.109a.036.036,0,0,1,.042.031l.511,3.639,1.052-.148-.511-3.637a.037.037,0,0,1,.007-.028.036.036,0,0,1,.025-.014l.657-.092a.036.036,0,0,1,.042.031l.511,3.638,2.209-.311h.005a.037.037,0,0,1,.036.044l-.222,1.153,1.319-.176.31-2.764a.038.038,0,0,1,.032-.033l.026,0a.037.037,0,0,1,.039.021l.639,1.452L73.2,140.7l.016-.941a.037.037,0,0,1,.032-.036l.761-.109a.037.037,0,0,1,.041.026l.281.9,1.138-.162-.147-.414a.038.038,0,0,1,.014-.044.036.036,0,0,1,.046,0,1.352,1.352,0,0,0,1.217.288,1.287,1.287,0,0,0,1.171-1.619c-.122-.848-.782-1.113-1.312-1.325l-.072-.029c-.357-.154-.594-.278-.64-.6a.314.314,0,0,1,.031-.2A.243.243,0,0,1,75.958,136.324Zm-6.324,2.466-.312,1.455a.037.037,0,0,1-.031.029l-1.5.211h-.005a.039.039,0,0,1-.022-.007.037.037,0,0,1-.014-.025l-.123-.879a.035.035,0,0,1,.007-.027.037.037,0,0,1,.025-.014l1.056-.152-.13-.905-1.053.152a.035.035,0,0,1-.027-.007.037.037,0,0,1-.014-.025l-.111-.79a.035.035,0,0,1,.007-.027.036.036,0,0,1,.025-.014l1.512-.213a.037.037,0,0,1,.037.019l.676,1.193A.038.038,0,0,1,69.634,138.79Zm4.109-.065a.038.038,0,0,1-.026.017l-.454.065h-.005a.036.036,0,0,1-.024-.009.037.037,0,0,1-.013-.028l-.012-1.578a.037.037,0,0,1,.031-.037l.038-.005a.038.038,0,0,1,.041.027l.428,1.518A.04.04,0,0,1,73.743,138.725Z" transform="translate(-63.607 -131.916)" fill="#2d2a26"/>
      <g id="Group_1911" data-name="Group 1911" transform="translate(13.536 3.453)">
        <path id="Path_1435" data-name="Path 1435" d="M306.924,135.678l-.071.01.039.272-.066.01-.039-.272-.071.01-.008-.054.208-.03Z" transform="translate(-306.708 -135.577)" fill="#2d2a26"/>
        <path id="Path_1436" data-name="Path 1436" d="M311.073,134.826l.08.223h0l.014-.237.1-.014.047.326-.06.009-.038-.26h0l-.02.269-.051.007-.1-.252h0l.038.26-.06.009-.047-.326Z" transform="translate(-310.738 -134.799)" fill="#2d2a26"/>
      </g>
      <g id="Group_1912" data-name="Group 1912" transform="translate(5.203 1.893)">
        <path id="Path_1437" data-name="Path 1437" d="M158.745,106.778l-1.689,1.66.907-.131.423.813Z" transform="translate(-157.056 -106.778)" fill="#f6b318"/>
        <path id="Path_1438" data-name="Path 1438" d="M161.815,111.05l-.722-.369.371.714Z" transform="translate(-160.868 -110.464)" fill="#f6b318"/>
        <path id="Path_1439" data-name="Path 1439" d="M185.381,123.752l-.075.487.8-.116Z" transform="translate(-183.733 -122.806)" fill="#f6b318"/>
      </g>
    </g>
  </g>
</svg>
