<svg xmlns="http://www.w3.org/2000/svg" width="179.383" height="180.086" viewBox="0 0 179.383 180.086">
  <g id="Group_3615" data-name="Group 3615" transform="translate(-1)">
    <path id="Path_3270" data-name="Path 3270" d="M178.838,36.719,143.666,1.546A5.275,5.275,0,0,0,139.935,0h-80.9A15.846,15.846,0,0,0,43.208,15.828V85.414a47.483,47.483,0,0,0,5.276,94.673H164.555a15.846,15.846,0,0,0,15.828-15.828V40.45a5.276,5.276,0,0,0-1.545-3.731ZM145.21,18.013l17.16,17.16H145.21ZM11.552,132.6a36.932,36.932,0,1,1,36.932,36.932A36.974,36.974,0,0,1,11.552,132.6Zm153,36.932H78.293a47.462,47.462,0,0,0,17.38-31.656h54.813a5.276,5.276,0,0,0,0-10.552H95.673a47.19,47.19,0,0,0-7.727-21.1h62.54a5.276,5.276,0,0,0,0-10.552H78.293A47.266,47.266,0,0,0,53.76,85.414V15.828a5.282,5.282,0,0,1,5.276-5.276h75.622v29.9a5.276,5.276,0,0,0,5.276,5.276h29.9V164.258A5.282,5.282,0,0,1,164.555,169.534Z" fill="#a39382"/>
    <path id="Path_3271" data-name="Path 3271" d="M273.657,182H196.276a5.276,5.276,0,1,0,0,10.552h77.381a5.276,5.276,0,1,0,0-10.552Z" transform="translate(-123.171 -117.985)" fill="#a39382"/>
    <path id="Path_3272" data-name="Path 3272" d="M140.345,333.656a5.276,5.276,0,1,0,0-10.552h-8.793V307.276a5.276,5.276,0,1,0-10.552,0v21.1a5.276,5.276,0,0,0,5.276,5.276Z" transform="translate(-77.792 -195.777)" fill="#a39382"/>
  </g>
</svg>
