<?xml version="1.0" encoding="UTF-8"?><svg id="Layer_1" xmlns="http://www.w3.org/2000/svg" xmlns:xlink="http://www.w3.org/1999/xlink" viewBox="0 0 324.17 194"><defs><style>.cls-1{fill:#993324;}.cls-2{fill:#fff;}.cls-3{filter:url(#drop-shadow-1);}</style><filter id="drop-shadow-1" filterUnits="userSpaceOnUse"><feOffset dx="4" dy="-1"/><feGaussianBlur result="blur" stdDeviation="5"/><feFlood flood-color="#000" flood-opacity=".2"/><feComposite in2="blur" operator="in"/><feComposite in="SourceGraphic"/></filter></defs><g class="cls-3"><rect id="Rectangle_1484-16" class="cls-2" width="324.17" height="194" rx="19.67" ry="19.67"/></g><g id="Component_173_3"><g id="Group_1582-7"><path id="Path_1094-7" class="cls-1" d="M27.59,34.76h-7.53v12.57h-7.88V14.83H28.48v6.95h-8.41v6.24h7.53v6.73Z"/><path id="Path_1095-7" class="cls-1" d="M39.42,47.33h-7.88V14.83h8.1c1.55-.02,3.1,.13,4.63,.44,1.25,.24,2.44,.76,3.48,1.5,.97,.75,1.73,1.74,2.19,2.88,.56,1.47,.83,3.03,.77,4.6,.01,1.66-.26,3.3-.8,4.87-.52,1.49-1.54,2.76-2.88,3.59l6.64,21.33h-8.37l-5.4-19.74h-.49v13.02Zm.71-19.4c.7,.04,1.38-.19,1.91-.64,.56-.69,.81-1.58,.71-2.46,.02-.53-.05-1.06-.2-1.57-.1-.35-.28-.67-.53-.93-.2-.21-.46-.36-.73-.44-.26-.07-.53-.11-.8-.11h-1.06v6.16h.71Z"/><path id="Path_1096-7" class="cls-1" d="M69.92,34.23h-7.53v6.15h9.21v6.95h-17.09V14.83h16.29v6.95h-8.41v5.67h7.53v6.78Z"/><path id="Path_1097-7" class="cls-1" d="M90.29,34.23h-7.53v6.15h9.21v6.95h-17.09V14.83h16.29v6.95h-8.41v5.67h7.53v6.78Z"/></g></g><g id="star-4"><path id="Path_788-4" class="cls-1" d="M24.78,148.49l4.79,9.57,10.53,1.53-7.66,7.47,1.72,10.53-9.38-4.98-9.38,4.98,1.72-10.53-7.66-7.47,10.53-1.53,4.79-9.57Z"/></g></svg>