<svg xmlns="http://www.w3.org/2000/svg" width="368.438" height="297.612" viewBox="0 0 368.438 297.612">
  <g id="Group_21" data-name="Group 21" transform="translate(-683.755 -316.859)">
    <g id="Group_20" data-name="Group 20" transform="translate(698.478 543.476)">
      <path id="Path_22" data-name="Path 22" d="M722.462,699.744v27.464H705.833V658.641h17.1a40.143,40.143,0,0,1,12.518,1.728,14.807,14.807,0,0,1,8.034,6.025q2.8,4.3,2.8,12.144a30.656,30.656,0,0,1-1.682,10.276,14.506,14.506,0,0,1-6.072,7.567l10.463,30.827H731.337l-7.846-27.464Zm0-13.452h1.5a5.642,5.642,0,0,0,4.017-1.4q1.494-1.4,1.493-5.138,0-4.109-1.541-5.278a5.263,5.263,0,0,0-3.222-1.168h-2.242Z" transform="translate(-705.833 -657.333)" fill="#fff"/>
      <path id="Path_23" data-name="Path 23" d="M809.736,685.264v14.293h-15.88v12.985h19.431v14.666H777.134V658.641H811.6v14.666H793.856v11.957Z" transform="translate(-729.585 -657.333)" fill="#fff"/>
      <path id="Path_24" data-name="Path 24" d="M1113.047,727.208h-15.695V658.641h15.882q10.554,0,16.534,3.6a19.5,19.5,0,0,1,8.454,10.883q2.472,7.287,2.475,18.5,0,11.77-2.523,19.664a21.64,21.64,0,0,1-8.547,11.91Q1123.6,727.209,1113.047,727.208Zm.934-14.2h1.4a6.249,6.249,0,0,0,4.625-1.729q1.728-1.727,2.567-6.212a73.13,73.13,0,0,0,.842-12.7,76.7,76.7,0,0,0-.56-10.369,19.73,19.73,0,0,0-1.588-5.932,5.75,5.75,0,0,0-2.477-2.709,7.512,7.512,0,0,0-3.315-.7h-1.5Z" transform="translate(-836.26 -657.333)" fill="#fff"/>
      <path id="Path_25" data-name="Path 25" d="M1210.55,679.194l-16.16,1.588q.09-5.792-.936-7.94a3.292,3.292,0,0,0-3.082-2.149,2.8,2.8,0,0,0-2.429,1.028,4.169,4.169,0,0,0-.748,2.521,6.928,6.928,0,0,0,2.1,5.325,36.156,36.156,0,0,0,5.559,4.111q2.8,1.59,5.792,3.5a34.926,34.926,0,0,1,5.605,4.483,19.674,19.674,0,0,1,5.884,14.713q0,7.287-2.663,12a16.747,16.747,0,0,1-7.333,7.006,23.9,23.9,0,0,1-10.649,2.289q-11.491,0-16.395-5.792t-5.184-16.722l17.1-1.868a28.4,28.4,0,0,0,.746,6.772,5.48,5.48,0,0,0,1.868,3.13,4.8,4.8,0,0,0,2.8.841q3.082,0,3.083-4.39a7.148,7.148,0,0,0-2.9-6.025,52.679,52.679,0,0,0-6.913-4.344q-2.711-1.588-5.512-3.363a26.513,26.513,0,0,1-5.138-4.251,18.73,18.73,0,0,1-3.737-5.978,22.488,22.488,0,0,1-1.4-8.361q0-9.995,6.072-15.32t15.787-5.325q9.808,0,14.339,5.558T1210.55,679.194Z" transform="translate(-860.432 -656.68)" fill="#fff"/>
      <g id="Group_18" data-name="Group 18" transform="translate(146.817 1.226)">
        <g id="Group_15" data-name="Group 15" transform="translate(13.107)">
          <path id="Path_26" data-name="Path 26" d="M969.614,658.518l-9.11,25.961-5.7,15.971-9.155,25.916,23.006-15.677,22.381,16.543-19.676-63.139Z" transform="translate(-945.646 -658.518)" fill="#fff"/>
        </g>
        <g id="Group_16" data-name="Group 16" transform="translate(0 25.473)">
          <path id="Path_27" data-name="Path 27" d="M925.991,696.717l20.4,15.083,5.171-14.637Z" transform="translate(-925.991 -696.717)" fill="#fff"/>
        </g>
        <g id="Group_17" data-name="Group 17" transform="translate(47.599 26.329)">
          <path id="Path_28" data-name="Path 28" d="M1023.057,698.507,997.368,698,1002,712.857Z" transform="translate(-997.368 -698)" fill="#fff"/>
        </g>
      </g>
      <path id="Path_29" data-name="Path 29" d="M1058.608,696.381a14.506,14.506,0,0,0,6.072-7.567,30.656,30.656,0,0,0,1.682-10.276q0-7.847-2.8-12.144a14.809,14.809,0,0,0-8.034-6.025,40.142,40.142,0,0,0-12.518-1.728h-17.1V680.7l6.744.133a4.563,4.563,0,0,1,2.48,8.333l-9.224,6.286v31.755h16.629V699.744h1.028l7.847,27.464h17.655Zm-10.555-11.49a5.643,5.643,0,0,1-4.017,1.4h-1.495V673.307h2.242a5.264,5.264,0,0,1,3.222,1.168q1.542,1.169,1.541,5.278Q1049.546,683.491,1048.053,684.891Z" transform="translate(-812.461 -657.333)" fill="#fff"/>
      <g id="Group_19" data-name="Group 19" transform="translate(86.315 1.308)">
        <path id="Path_30" data-name="Path 30" d="M924.3,679.469h.081l12.406.216,3.24-21.045H922.468l-1.539,22.34A4.552,4.552,0,0,1,924.3,679.469Z" transform="translate(-863.803 -658.641)" fill="#fff"/>
        <path id="Path_31" data-name="Path 31" d="M893.055,687.7a4.571,4.571,0,0,1-1.05-1.1l-1.529,22.2H890.1l-6.82-50.164H864.318l-6.445,50.537h-.561l-3.923-50.537H835.266l11.584,68.567h21.859l4.579-44.372h.467l5.418,44.372h21.765l4.655-30.237Z" transform="translate(-835.266 -658.641)" fill="#fff"/>
      </g>
    </g>
    <path id="Path_32" data-name="Path 32" d="M683.755,338.607v40.986h32.371V529.972H762.6V379.593h39.418V529.972H903.045V489.239h-54.3V452.951h44.381V413.009H848.744V379.593h73.551l20.168,53-36.646,97.382h53l16.806-61.617h1.044l17.491,61.617h52.473l-34.983-98.166,40.551-114.947h-50.645l-23.844,80.486H976.4l-17.491-58.738Z" transform="translate(0 0)" fill="#fff"/>
  </g>
</svg>
