<svg xmlns="http://www.w3.org/2000/svg" width="267.33" height="248.19" viewBox="0 0 267.33 248.19">
  <g id="Texas_logo" data-name="Texas logo" transform="translate(-66.33 -75.9)">
    <g id="Group_1" data-name="Group 1">
      <path id="Path_7" data-name="Path 7" d="M102.74,163.31a103.286,103.286,0,0,1,179-25.51l22.97-3.27A124.1,124.1,0,0,0,79.77,166.58Z" fill="#f6b318"/>
      <path id="Path_8" data-name="Path 8" d="M279.15,265.5a103.27,103.27,0,0,1-157.84,2.2l-23.73,3.38a124.111,124.111,0,0,0,209.51-9.57Z" fill="#f6b318"/>
    </g>
    <g id="Group_2" data-name="Group 2">
      <path id="Path_9" data-name="Path 9" d="M212.5,257.84h0l-.56-2.86a5.428,5.428,0,0,0-1.38.03c-2.51.36-3.64,1.4-2.87,6.77.67,4.73,2.03,5.43,4.83,5.03a12.19,12.19,0,0,0,3.23-.96l.71,2.36a17.907,17.907,0,0,1-4.1,1.16c-4.72.67-7.08-.55-8.01-7.04-1.01-7.08,1.31-9.11,5.99-9.77a14.41,14.41,0,0,1,3.76-.06l.67,5.02Z" fill="#fff"/>
      <path id="Path_10" data-name="Path 10" d="M222.58,265.52h0l1.93-.37-1.69-11.88-1.96.18-.3-2.11,7.06-1.01.3,2.11-1.79.33.64,4.45,6.27-.89-.63-4.46-1.81.19-.3-2.11,7.03-1,.31,2.11-1.94.37,1.7,11.88,1.96-.18.3,2.11-7.04,1-.3-2.11,1.79-.33-.7-4.92-6.28.9.7,4.92,1.81-.19.3,2.11-7.06,1.01Z" fill="#fff"/>
      <path id="Path_11" data-name="Path 11" d="M245.65,262.23h0l1.93-.37-1.69-11.88-1.96.18-.3-2.11,7.21-1.03.3,2.11-1.93.37,1.69,11.89,1.96-.19.3,2.11-7.21,1.03Z" fill="#fff"/>
      <path id="Path_12" data-name="Path 12" d="M266.99,250.08h0l-.56-2.86a5.428,5.428,0,0,0-1.38.03c-2.51.36-3.64,1.4-2.87,6.77.67,4.73,2.03,5.43,4.83,5.03a12.19,12.19,0,0,0,3.23-.96l.71,2.36a17.907,17.907,0,0,1-4.1,1.16c-4.72.67-7.08-.55-8.01-7.04-1.01-7.08,1.31-9.11,5.99-9.77a14.411,14.411,0,0,1,3.76-.06l.67,5.02Z" fill="#fff"/>
      <path id="Path_13" data-name="Path 13" d="M277.07,257.75h0l1.93-.37-1.7-11.88-1.96.18-.3-2.11,6.69-.95.3,2.04-1.43.25.79,5.48,4.16-6.16-1.53.14-.29-2.04,6.69-.95.3,2.11-1.32.26-4.35,6.31,6.32,5.61,1.39-.15.3,2.11-6.94.98-.29-2.03,1.52-.27-5.86-5.19.84,5.91,1.44-.16.29,2.04-6.69.95Z" fill="#fff"/>
      <path id="Path_14" data-name="Path 14" d="M306.91,249.67h0l-.32-1.34-3.56.51.69,4.87,4.7-.67-.16-1.98,2.26-.33.62,4.32-12.35,1.76-.3-2.11,1.93-.37-1.69-11.89-1.96.19-.3-2.11,12.35-1.76.59,4.19-2.26.33-.38-1.84-4.7.67.65,4.55,3.56-.51-.07-1.35,2.05-.29.69,4.87Z" fill="#fff"/>
      <path id="Path_15" data-name="Path 15" d="M317.78,254.1h0l-.3-2.11,1.93-.37-1.69-11.88-1.96.18-.3-2.11,6.32-.9,5.94,7.88a46.274,46.274,0,0,1,2.85,4.33l.07-.01c-.4-1.59-.77-3.31-.98-4.6l-.91-6.4-1.83.19-.3-2.09,6.47-.92.3,2.11-1.74.32,2.01,14.11-4.33.62-5.97-7.88a46.274,46.274,0,0,1-2.85-4.33l-.1.01c.4,1.59.8,3.31.98,4.6l.91,6.4,1.83-.19.3,2.09Z" fill="#fff"/>
    </g>
    <path id="Path_16" data-name="Path 16" d="M297.65,158.45a4.467,4.467,0,0,1,3.51.82c2,1.52,3.3,4.98,4.18,11.2l19.06-4.69c-1.5-10.23-4.7-17.06-9.78-20.89-4.37-3.29-10.12-4.36-17.57-3.29-8.17,1.18-14.69,4.46-18.83,9.48-4.29,5.2-5.94,12.19-4.79,20.23,2.35,16.33,13.74,20.75,23.79,24.65l.11.04c7.45,2.77,13.89,5.15,14.88,12.01a8.111,8.111,0,0,1-.44,4.86,4.117,4.117,0,0,1-3.29,2.12c-5.25.76-7.97-2.79-9.59-12.59l-19.71,5.07a.692.692,0,0,1-.82-.43l-21.22-56.33-26.31,3.79-4.51,74.41a.7.7,0,0,1-1.31.29l-15.43-29.31a.691.691,0,0,1-.06-.47l11.35-54.14-22.42,3.15-5.41,37.66a.7.7,0,0,1-.59.59l-.6.09a.705.705,0,0,1-.73-.4l-11.45-24.72L66.33,177.68l2.51,17.41,14.34-2.04a.681.681,0,0,1,.78.58l9.58,68.16,19.7-2.77-9.57-68.11a.7.7,0,0,1,.13-.52.67.67,0,0,1,.46-.27l12.31-1.73a.683.683,0,0,1,.78.59l9.57,68.13,41.37-5.82c.03,0,.07-.01.1-.01a.688.688,0,0,1,.68.82l-4.16,21.6,24.7-3.3,5.81-51.76a.711.711,0,0,1,.59-.61l.48-.07a.7.7,0,0,1,.73.4l11.96,27.19,36.77-5.19.3-17.63a.7.7,0,0,1,.59-.67l14.25-2.05a.69.69,0,0,1,.76.48l5.27,16.91,21.32-3.03-2.76-7.75a.708.708,0,0,1,.27-.83.682.682,0,0,1,.86.09c5.13,5.11,12.58,6.87,22.8,5.4,16.38-2.36,24.38-13.42,21.94-30.33-2.29-15.88-14.65-20.84-24.58-24.82l-1.34-.54c-6.68-2.88-11.12-5.21-11.99-11.22a5.883,5.883,0,0,1,.58-3.81A4.547,4.547,0,0,1,297.65,158.45ZM179.21,204.64l-5.84,27.26a.692.692,0,0,1-.58.54l-28.18,3.95c-.03,0-.07.01-.1.01a.729.729,0,0,1-.42-.14.686.686,0,0,1-.27-.46l-2.31-16.46a.662.662,0,0,1,.13-.51.686.686,0,0,1,.46-.27l19.78-2.85-2.44-16.95-19.72,2.84a.662.662,0,0,1-.51-.13.686.686,0,0,1-.27-.46l-2.08-14.79a.662.662,0,0,1,.13-.51.686.686,0,0,1,.46-.27l28.31-3.98a.687.687,0,0,1,.7.35l12.67,22.34A.716.716,0,0,1,179.21,204.64Zm76.96-1.22a.706.706,0,0,1-.48.31l-8.5,1.22c-.03,0-.07.01-.1.01a.681.681,0,0,1-.45-.17.692.692,0,0,1-.24-.52l-.22-29.55a.691.691,0,0,1,.59-.69l.72-.1a.706.706,0,0,1,.77.5l8.01,28.43A.75.75,0,0,1,256.17,203.42Z" fill="#fff"/>
    <g id="Group_3" data-name="Group 3">
      <path id="Path_17" data-name="Path 17" d="M323.88,142.45l-1.33.19.74,5.1-1.23.18-.74-5.1-1.33.19-.15-1.01,3.9-.57Z" fill="#fff"/>
      <path id="Path_18" data-name="Path 18" d="M326.12,141.09l1.5,4.18h.02l.26-4.44,1.82-.26.89,6.11-1.13.16-.71-4.87h-.02l-.38,5.03-.96.14-1.79-4.72h-.02l.71,4.87-1.13.16-.89-6.11Z" fill="#fff"/>
    </g>
    <g id="Group_4" data-name="Group 4">
      <path id="Path_19" data-name="Path 19" d="M195.42,111.35l-31.64,31.09,16.98-2.46,7.92,15.23Z" fill="#f6b318"/>
      <path id="Path_20" data-name="Path 20" d="M181.51,122.33l-13.52-6.91,6.95,13.37Z" fill="#f6b318"/>
      <path id="Path_21" data-name="Path 21" d="M194.64,129.05l-1.4,9.13,14.97-2.17Z" fill="#f6b318"/>
    </g>
  </g>
</svg>
