<svg xmlns="http://www.w3.org/2000/svg" width="382.21" height="354.811" viewBox="0 0 382.21 354.811">
  <g id="Texas_logo-01-01" data-name="Texas logo-01-01" transform="translate(-8.9 -22.59)">
    <g id="Group_71" data-name="Group 71">
      <path id="Path_99" data-name="Path 99" d="M60.95,147.55a147.662,147.662,0,0,1,255.91-36.48l32.84-4.68A177.425,177.425,0,0,0,28.12,152.23Z" fill="#f6b318"/>
      <path id="Path_100" data-name="Path 100" d="M313.15,293.64A147.632,147.632,0,0,1,87.5,296.78l-33.92,4.83A177.425,177.425,0,0,0,353.1,287.93Z" fill="#f6b318"/>
    </g>
    <g id="Group_72" data-name="Group 72">
      <path id="Path_101" data-name="Path 101" d="M217.87,282.7h0l-.8-4.09a8.3,8.3,0,0,0-1.97.04c-3.59.51-5.2,2.01-4.11,9.68.96,6.77,2.9,7.76,6.91,7.19a17.581,17.581,0,0,0,4.61-1.37l1.02,3.38a25.313,25.313,0,0,1-5.86,1.66c-6.75.96-10.12-.78-11.45-10.06-1.44-10.12,1.88-13.02,8.56-13.97a20.634,20.634,0,0,1,5.37-.08l.95,7.18Z" fill="#2d2a26"/>
      <path id="Path_102" data-name="Path 102" d="M232.28,293.67h0l2.76-.53-2.42-16.99-2.8.26-.43-3.02,10.09-1.43.43,3.01-2.55.47.91,6.37,8.97-1.28-.91-6.37-2.58.27-.43-3.02,10.05-1.43.43,3.01-2.76.53,2.43,16.99,2.79-.26.43,3.02-10.05,1.43-.43-3.02,2.55-.46-1-7.04-8.97,1.28,1,7.03,2.58-.26.43,3.02-10.09,1.43Z" fill="#2d2a26"/>
      <path id="Path_103" data-name="Path 103" d="M265.27,288.97h0l2.76-.53-2.42-16.99-2.8.26-.43-3.02,10.3-1.47.43,3.02-2.76.53,2.42,16.99,2.8-.26.43,3.01-10.3,1.47Z" fill="#2d2a26"/>
      <path id="Path_104" data-name="Path 104" d="M295.77,271.59h0l-.8-4.09a8.3,8.3,0,0,0-1.97.04c-3.59.51-5.2,2.01-4.11,9.68.96,6.77,2.9,7.76,6.91,7.19a17.581,17.581,0,0,0,4.61-1.37l1.02,3.38a25.314,25.314,0,0,1-5.86,1.66c-6.75.96-10.12-.78-11.45-10.06-1.44-10.12,1.88-13.02,8.56-13.97a20.634,20.634,0,0,1,5.37-.08l.95,7.18Z" fill="#2d2a26"/>
      <path id="Path_105" data-name="Path 105" d="M310.17,282.57h0l2.76-.54-2.42-16.98-2.8.26-.43-3.02,9.57-1.36.42,2.91-2.04.36,1.12,7.84,5.96-8.81-2.2.21-.41-2.92,9.56-1.36.43,3.01-1.88.37-6.21,9.03,9.03,8.01,1.98-.21.43,3.01-9.92,1.42-.41-2.92,2.17-.38-8.38-7.42,1.2,8.45,2.05-.23.42,2.92-9.57,1.36Z" fill="#2d2a26"/>
      <path id="Path_106" data-name="Path 106" d="M352.84,271.01h0l-.45-1.92-5.1.73.99,6.97,6.72-.96-.23-2.84,3.24-.46.88,6.17-17.66,2.51-.43-3.01,2.76-.53-2.42-16.99-2.8.26-.43-3.02,17.66-2.51.85,6-3.23.46-.56-2.63-6.71.96.92,6.5,5.1-.72-.09-1.94,2.92-.41.99,6.97Z" fill="#2d2a26"/>
      <path id="Path_107" data-name="Path 107" d="M368.38,277.34h0l-.43-3.02,2.76-.53-2.42-16.99-2.8.26-.43-3.02,9.04-1.29,8.5,11.27a64.212,64.212,0,0,1,4.07,6.19l.11-.01c-.58-2.28-1.1-4.73-1.4-6.57l-1.3-9.15-2.62.27-.43-2.98,9.25-1.32.43,3.02-2.48.46,2.88,20.17-6.19.88-8.53-11.26a64.212,64.212,0,0,1-4.07-6.19l-.14.02c.58,2.28,1.14,4.73,1.4,6.57l1.3,9.15,2.62-.27.42,2.98Z" fill="#2d2a26"/>
    </g>
    <path id="Path_108" data-name="Path 108" d="M339.61,140.59a6.39,6.39,0,0,1,5.02,1.18c2.86,2.17,4.72,7.13,5.98,16.01l27.25-6.7c-2.14-14.62-6.71-24.39-13.98-29.86-6.25-4.7-14.47-6.24-25.12-4.71-11.68,1.68-20.99,6.37-26.92,13.55-6.13,7.43-8.5,17.43-6.84,28.92,3.36,23.34,19.64,29.67,34.01,35.24l.15.06c10.66,3.95,19.86,7.37,21.27,17.17.43,3.03.23,5.3-.63,6.95a5.9,5.9,0,0,1-4.7,3.04c-7.5,1.09-11.39-3.98-13.71-18.01l-28.18,7.25a.981.981,0,0,1-1.17-.61L281.7,129.54l-37.61,5.42-6.44,106.38a.992.992,0,0,1-1.87.4l-22.06-41.91a.967.967,0,0,1-.09-.67l16.22-77.4-32.05,4.5-7.73,53.85a.976.976,0,0,1-.84.84l-.86.12a.994.994,0,0,1-1.04-.57l-16.37-35.34L8.9,168.09l3.58,24.89,20.49-2.92a.989.989,0,0,1,1.12.83l13.7,97.45,28.16-3.96L62.26,187a1.021,1.021,0,0,1,.18-.74,1.006,1.006,0,0,1,.66-.39l17.6-2.47a.991.991,0,0,1,1.12.84l13.69,97.39,59.14-8.32a.66.66,0,0,1,.14-.01,1,1,0,0,1,.98,1.18l-5.95,30.88,35.31-4.72,8.3-73.99a.987.987,0,0,1,.84-.87l.69-.1a1,1,0,0,1,1.05.58l17.1,38.87,52.57-7.42.43-25.21a.988.988,0,0,1,.85-.96l20.37-2.94a1,1,0,0,1,1.09.68l7.53,24.18,30.48-4.34-3.95-11.07a.992.992,0,0,1,1.63-1.05c7.33,7.3,17.99,9.83,32.59,7.73,23.42-3.37,34.85-19.18,31.37-43.36-3.27-22.7-20.94-29.79-35.14-35.49l-1.91-.77c-9.55-4.11-15.89-7.44-17.13-16.05a8.341,8.341,0,0,1,.83-5.44A6.445,6.445,0,0,1,339.61,140.59ZM170.27,206.64l-8.34,38.97a.99.99,0,0,1-.83.77l-40.28,5.65a.661.661,0,0,1-.14.01.977.977,0,0,1-.59-.2,1.008,1.008,0,0,1-.39-.65l-3.31-23.54a.959.959,0,0,1,.19-.73,1.008,1.008,0,0,1,.65-.39l28.28-4.07-3.49-24.23-28.19,4.06a.959.959,0,0,1-.73-.19,1.008,1.008,0,0,1-.39-.65l-2.97-21.14a.959.959,0,0,1,.19-.73,1.008,1.008,0,0,1,.65-.39l40.47-5.69a.99.99,0,0,1,1.01.5l18.11,31.94A1.006,1.006,0,0,1,170.27,206.64Zm110.03-1.76a1,1,0,0,1-.69.44l-12.15,1.75a.661.661,0,0,1-.14.01.987.987,0,0,1-.65-.24.975.975,0,0,1-.34-.74L266,163.86a.993.993,0,0,1,.85-.99l1.03-.15a1,1,0,0,1,1.1.71l11.45,40.64A1.045,1.045,0,0,1,280.3,204.88Z" fill="#2d2a26"/>
    <g id="Group_73" data-name="Group 73">
      <path id="Path_109" data-name="Path 109" d="M377.1,117.73l-1.91.28,1.06,7.29-1.76.26-1.06-7.29-1.91.28-.21-1.44,5.57-.81Z" fill="#2d2a26"/>
      <path id="Path_110" data-name="Path 110" d="M380.3,115.79l2.14,5.98h.03l.36-6.34,2.6-.38,1.27,8.73-1.61.23-1.01-6.97h-.02l-.54,7.19-1.37.2-2.56-6.74h-.02l1.01,6.97-1.61.23-1.27-8.73Z" fill="#2d2a26"/>
    </g>
    <g id="Group_74" data-name="Group 74">
      <path id="Path_111" data-name="Path 111" d="M193.45,73.26l-45.23,44.45,24.28-3.51,11.32,21.76Z" fill="#f6b318"/>
      <path id="Path_112" data-name="Path 112" d="M173.57,88.96l-19.33-9.87,9.93,19.1Z" fill="#f6b318"/>
      <path id="Path_113" data-name="Path 113" d="M192.34,98.57l-2,13.05,21.4-3.1Z" fill="#f6b318"/>
    </g>
  </g>
</svg>
