<?xml version="1.0" encoding="UTF-8"?><svg id="Layer_1" xmlns="http://www.w3.org/2000/svg" viewBox="0 0 414.34 414.31"><defs><style>.cls-1{fill:#2d2a26;}</style></defs><path class="cls-1" d="M313.85,150.49c2.57-9.48-3.91-19.87-15.08-24.75,.92-3.2,1.76-6.45,2.38-9.79,.96-5.26,1.7-10.68,1.45-16.42-.23-5.71-1.18-11.79-4.18-17.89l-.19-.39c-.29-.59-.66-1.15-1.1-1.68-3.1-3.71-8.69-4.26-12.49-1.24-3.8,3.02-4.37,8.48-1.27,12.19,2.23,2.67,3.95,6.51,5.07,10.77,1.18,4.26,1.61,9,1.78,13.78,.1,2.72,.03,5.47-.11,8.24-9.86-1.33-19.1,2.14-23.51,8.84-11.96,.11-34.56,4.55-47.07,34.21-1.56,3.69-2.62,7.57-3.56,11.45-.76,3.15-1.64,6.29-2.67,9.42-18.72,56.94-75.2,91.77-133.8,86.66-7.61-.66-11.37,8.74-5.3,13.27,19.61,14.61,43.17,25.1,69.82,29.69,76.12,13.1,151.59-30.57,177.42-101.64,11.95-32.87,4.55-52.74-7.6-64.71Zm-46.49,113.63c-21.56,19.2-48.27,31.71-77.23,36.18-5.26,.81-10.6,1.35-15.87,1.61-2.97,.15-5.5-2.08-5.65-4.98-.15-2.9,2.21-5.36,5.11-5.51,4.89-.24,9.85-.75,14.74-1.5,26.87-4.14,51.65-15.75,71.65-33.56,2.2-1.94,5.61-1.8,7.61,.34,2.01,2.14,1.85,5.47-.34,7.43Zm22.77-25.61c-2.19,3.13-4.53,6.22-6.96,9.18-.87,1.06-2.08,1.7-3.36,1.9-1.45,.22-2.98-.13-4.21-1.09-2.32-1.82-2.69-5.12-.83-7.39,2.26-2.74,4.43-5.61,6.46-8.52,1.68-2.4,5.03-3.01,7.49-1.38,2.46,1.64,3.1,4.91,1.42,7.3Z"/><path class="cls-1" d="M317.52,340c-29.92,24.88-68.39,39.85-110.35,39.85-95.38,0-172.7-77.32-172.7-172.7S111.79,34.46,207.17,34.46s172.7,77.32,172.7,172.7c0,10.61-.96,20.99-2.79,31.08l33.92,6.2c2.2-12.09,3.35-24.55,3.35-37.28C414.34,92.74,321.59-.02,207.17-.02S0,92.74,0,207.15s92.75,207.17,207.17,207.17c50.34,0,96.47-17.96,132.37-47.81l-22.03-26.52Z"/><g><path class="cls-1" d="M356.26,353.08l-26.67-23.87,6.51-7.27c4.81-5.38,9.45-6.53,14.02-2.43,3.82,3.41,3.28,7.52,2.06,9.76l.11,.1c3.3-2.67,6.94-3.15,11.08,.56,5.52,4.94,4.5,10.18-.87,16.18l-6.24,6.98Zm-9.69-21.64c1.43-1.6,.66-3.07-.76-4.34-2.29-2.05-3.46-1.33-4.34-.35l-.72,.8,5.16,4.62,.65-.73Zm10.78,9.52c1.88-2.11,1.19-3.52-.49-5.02-1.74-1.56-3.1-1.66-4.53-.06l-1.01,1.13,5.31,4.75,.72-.8Z"/><path class="cls-1" d="M359.64,322.25c-10.16-6.83-13.4-13.46-8.7-20.47,5.03-7.49,11.49-5.91,21.21,.61,10.53,7.07,14.02,13.41,9.13,20.7-4.92,7.33-11.64,5.87-21.64-.85Zm7.74-12.13c-7.45-5.01-9.37-5.29-10.32-3.88-1.06,1.58,.07,3.4,7.56,8.43,7.98,5.36,9.81,5.77,10.9,4.15,1.03-1.54-.16-3.34-8.14-8.7Z"/><path class="cls-1" d="M387.51,296.08l3.78-7.54,6.85,3.43-7.67,15.3-32-16.05,3.89-7.76,25.15,12.61Z"/><path class="cls-1" d="M400.59,286.57l-33.75-11.93,2.76-7.82c3.66-10.35,10.02-11.67,21.01-7.78,11.59,4.09,16.38,9.41,12.71,19.8l-2.73,7.73Zm-3.85-11.35c.99-2.81-.63-4.67-8.76-7.55-8.46-2.99-10.24-1.91-11.09,.48l-.26,.73,19.87,7.02,.24-.69Z"/></g></svg>