<?xml version="1.0" encoding="UTF-8"?><svg id="Layer_1" xmlns="http://www.w3.org/2000/svg" viewBox="0 0 414.34 414.31"><defs><style>.cls-1{fill:#952816;}</style></defs><path class="cls-1" d="M300.71,352.35c-26.96,17.4-59.06,27.51-93.54,27.51-95.38,0-172.7-77.32-172.7-172.7S111.79,34.46,207.17,34.46s172.7,77.32,172.7,172.7c0,10.61-.96,21-2.79,31.08l33.92,6.2c2.2-12.09,3.35-24.55,3.35-37.28C414.34,92.74,321.59-.02,207.17-.02S0,92.74,0,207.15s92.75,207.17,207.17,207.17c41.35,0,79.87-12.12,112.21-33l-18.67-28.98Z"/><g><path class="cls-1" d="M335,351.58l-6.05,4.86,8.12,10.11-6.37,5.12-20.99-26.12,13.13-10.55,4.49,5.59-6.76,5.44,4.03,5.02,6.05-4.86,4.35,5.41Z"/><path class="cls-1" d="M348.26,346.92l5.61-5.56,5.05,5.09-11.37,11.28-23.6-23.78,5.77-5.72,18.55,18.7Z"/><path class="cls-1" d="M346.24,309.29l30.78,15.09-5.39,6.79-5.86-3.25-3.37,4.26,4.51,4.97-5.16,6.51-21.99-26.17,6.49-8.19Zm3.86,9.52l-.17,.21,7.72,8.04,2.01-2.54-9.56-5.71Z"/><path class="cls-1" d="M361.38,285.78l25.02,23.27-5.45,8.91-32.37-11.24,4.59-7.51,22.65,9.74,.14-.23-19.01-15.69,4.43-7.24Z"/><path class="cls-1" d="M376.29,293.23c-10.47-4.64-14.53-10.23-11.34-17.45,3.42-7.72,9.63-7.31,19.65-2.88,10.85,4.81,15.1,10.09,11.77,17.6-3.34,7.55-9.77,7.3-20.08,2.74Zm5.16-12.44c-7.68-3.4-9.49-3.36-10.14-1.9-.72,1.63,.62,3.12,8.34,6.54,8.22,3.64,9.98,3.72,10.72,2.06,.7-1.59-.7-3.06-8.92-6.7Z"/><path class="cls-1" d="M404.73,266.51l-2.29,7.79-32.13-9.44,2.35-8.01c1.99-6.78,5.23-10.35,12.54-8.2,3.46,1.02,6.35,2.82,7.29,6.09l15.88-.66-2.43,8.27-13.95-.1-.14,.48,12.87,3.78Zm-18.97-6.33c.46-1.57,.06-2.79-2.31-3.48-2.54-.75-3.37,.29-3.68,1.35l-.31,1.05,6.09,1.79,.21-.7Z"/></g><g><path class="cls-1" d="M127.73,197.79c27.6,12.97,56.36,13.33,73.88,2.74l-123.12-57.88c3.02,20.24,21.65,42.16,49.24,55.14Z"/><path class="cls-1" d="M323.25,189.69c-5.21-6.28-11.36-10.37-16.59-12.97-.06-.03-.13-.06-.19-.09-1.52-.76-1.21-3.02,.45-3.34,3.84-.72,9.13-3.53,12.61-12.78,5.37-14.28-11.28-24.52-12.09-33.12-.03-.54-.02-1.09,.04-1.64,0-.05,.01-.1,.02-.15,0-.05,.01-.09,.02-.15,.18-1.24,.79-2.39,1.74-3.21l16.49-14.39s-18.08,.1-24.79,.05c-.6,0-1.16-.31-1.48-.81-2.82-4.45-10.63-5.94-10.63-5.94l-63.28-14.23c-2.06-.46-3.61,1.81-2.46,3.58,2.62,4.01,6.5,7.75,11.34,10.88,1.91,1.24,1.06,4.21-1.22,4.28l-9.69,.29c-2.1,.06-3.05,2.65-1.5,4.07,3.95,3.62,9.34,6.51,15.65,8.34,2.31,.67,2.17,4-.18,4.51l-7.12,1.57c-2.06,.45-2.54,3.23-.72,4.29,7.38,4.29,18.34,5.74,29.82,3.21,2.53-.56,4.96-1.28,7.25-2.15,1.8-.68,3.61,.97,3.06,2.82-.64,2.14-1.43,4.51-2.39,6.99-.02,.04-.02,.06-.02,.07-.62,2.02-1.24,3.98-1.86,5.9-8.46,23.33-28.47,68.21-59.17,79.51-3.83,.95-7.73,1.66-11.59,2.17-1.37,.18-2.74,.33-4.11,.46-29.21-.39-68.65-15.14-95.04-26.63l-28.55-13.42c3.82,25.57,25.71,53.09,58.62,71.28l-40.48-12.28c6.04,20.01,26.75,39.47,55.19,50.2l-21.79,.16c8.03,7.78,41.5,38.4,90.98,37.91,52.36-.52,99.77-35.65,116.15-79.1,4.53-12.02,5.98-22.8,6.46-30.29l.04-10.11c.03-9.36-3.01-18.55-8.98-25.76Z"/><path class="cls-1" d="M165.3,165.62l-64.03-63.22c-2.57,13.29,4.21,31.06,18.56,45.23,14.35,14.17,32.21,20.73,45.47,17.99Z"/></g></svg>