<svg id="Bag" xmlns="http://www.w3.org/2000/svg" width="13" height="13" viewBox="0 0 13 13">
  <path id="Path_152" data-name="Path 152" d="M8.125,5.688a.768.768,0,0,0,.813.813.768.768,0,0,0,.813-.812.768.768,0,0,0-.812-.812A.768.768,0,0,0,8.125,5.688Zm-4.875,0a.768.768,0,0,0,.813.813.768.768,0,0,0,.813-.812.768.768,0,0,0-.812-.812A.768.768,0,0,0,3.25,5.688Zm8.938-1.706L13,12.106a.923.923,0,0,1-.244.65.633.633,0,0,1-.569.244H.813a.633.633,0,0,1-.569-.244A.923.923,0,0,1,0,12.106L.813,3.981a.864.864,0,0,1,.813-.731H3.25a3.25,3.25,0,0,1,6.5,0h1.625A.864.864,0,0,1,12.188,3.981ZM8.125,3.25H4.875a1.625,1.625,0,0,1,3.25,0Z" fill="#2d2926" fill-rule="evenodd"/>
</svg>
