<svg xmlns="http://www.w3.org/2000/svg" version="1.1" xmlns:xlink="http://www.w3.org/1999/xlink" xmlns:svgjs="http://svgjs.com/svgjs" x="0" y="0" viewBox="0 0 64 64" style="enable-background:new 0 0 512 512" xml:space="preserve"><g><path d="m29 11v14a4 4 0 0 1 -4 4h-14a4 4 0 0 1 -4-4v-14a4 4 0 0 1 4-4h14a4 4 0 0 1 4 4zm24-4h-14a4 4 0 0 0 -4 4v14a4 4 0 0 0 4 4h14a4 4 0 0 0 4-4v-14a4 4 0 0 0 -4-4zm-28 28h-14a4 4 0 0 0 -4 4v14a4 4 0 0 0 4 4h14a4 4 0 0 0 4-4v-14a4 4 0 0 0 -4-4zm21 0a11 11 0 1 0 11 11 11 11 0 0 0 -11-11z" fill="currentColor" data-original="#000000"/></g></svg>