<svg xmlns="http://www.w3.org/2000/svg" width="22.423" height="25.186" viewBox="0 0 22.423 25.186" style="filter: grayscale(1);">
  <g id="Group_2064" data-name="Group 2064" transform="translate(-470.15 -101.38)">
    <path id="Path_1597" data-name="Path 1597" d="M50.8,11.846l2.765,6.143V34.166H48.033V17.989Z" transform="translate(439.011 92.401)" fill="#f8b02d"/>
    <path id="Path_1598" data-name="Path 1598" d="M46.987,8.414H32.141a1.024,1.024,0,0,0-1.024,1.024v1.843H48.011V9.438a1.024,1.024,0,0,0-1.024-1.024" transform="translate(441.797 92.966)" fill="#f2f2f2"/>
    <path id="Path_1599" data-name="Path 1599" d="M27.808,17.989V34.165H44.7V17.989l2.765-6.143H30.572Z" transform="translate(442.343 92.401)" fill="#f2f2f2"/>
    <g id="chucrchs_logo" data-name="chucrchs logo" transform="translate(471.559 111.443)">
      <path id="Path_1543" data-name="Path 1543" d="M72.481,177.767l-.33-2.35a.851.851,0,1,1,1.685-.237l.064.46-.613.086-.071-.5a.232.232,0,1,0-.46.064l.342,2.431a.232.232,0,0,0,.46-.065l-.071-.5.613-.086.064.46a.851.851,0,1,1-1.685.238" transform="translate(-72.14 -169.052)" fill="#2d2a26"/>
      <path id="Path_1544" data-name="Path 1544" d="M104.01,169.387l.613-.086.233,1.655.46-.064-.233-1.655.613-.086.545,3.882-.613.086-.233-1.655-.46.064.232,1.655-.613.086Z" transform="translate(-102.268 -164.047)" fill="#2d2a26"/>
      <path id="Path_1545" data-name="Path 1545" d="M140.428,167.424l-.438-3.116.613-.086.444,3.156a.232.232,0,0,0,.46-.065l-.444-3.156.613-.086.438,3.115a.851.851,0,0,1-1.686.238" transform="translate(-136.282 -159.244)" fill="#2d2a26"/>
      <path id="Path_1546" data-name="Path 1546" d="M175.96,161.135l.843-.119a.8.8,0,0,1,.961.724l.108.766a.8.8,0,0,1-.272.773l1.272,2.778-.638.09-1.219-2.66-.1.014.2,1.43-.613.086Zm1.107,1.762a.22.22,0,0,0,.2-.262l-.119-.848a.22.22,0,0,0-.262-.2l-.23.032.184,1.307Z" transform="translate(-170.286 -156.347)" fill="#2d2a26"/>
      <path id="Path_1547" data-name="Path 1547" d="M213.111,158l-.33-2.35a.851.851,0,1,1,1.685-.237l.064.46-.613.086-.07-.5a.232.232,0,0,0-.46.065l.342,2.431a.232.232,0,1,0,.46-.064l-.071-.5.613-.086.064.46a.85.85,0,1,1-1.684.237" transform="translate(-205.084 -150.363)" fill="#2d2a26"/>
      <path id="Path_1548" data-name="Path 1548" d="M244.64,149.627l.613-.086.233,1.654.46-.064-.233-1.655.613-.086.545,3.882-.613.086-.232-1.655-.46.064.232,1.655-.613.086Z" transform="translate(-235.212 -145.367)" fill="#2d2a26"/>
      <path id="Path_1549" data-name="Path 1549" d="M287.981,148.077l-.065-.46.613-.086.07.5a.232.232,0,1,0,.46-.064l-.042-.3c-.09-.638-1.191-.692-1.324-1.637l-.043-.307a.851.851,0,0,1,1.686-.237l.065.46-.613.086-.07-.5a.232.232,0,1,0-.46.064l.042.3c.089.633,1.191.692,1.324,1.637l.043.307a.851.851,0,1,1-1.685.237" transform="translate(-275.862 -140.985)" fill="#2d2a26"/>
      <path id="Path_1550" data-name="Path 1550" d="M143.866,249.567l-.349.049-.015-.106.1-.02-.083-.59-.122.017.013.13-.1.014-.034-.248.594-.083.035.248-.1.014-.024-.129-.121.017.083.59.1-.009Z" transform="translate(-139.392 -239.277)" fill="#2d2a26"/>
      <path id="Path_1551" data-name="Path 1551" d="M156.472,247.635l-.015-.068-.155.022.034.245.2-.028-.009-.1.1-.014.031.217-.535.075-.015-.107.084-.016-.084-.6-.085.007-.015-.107.535-.075.03.211-.1.014-.019-.092-.2.029.032.229.154-.022,0-.068.089-.012.034.245Z" transform="translate(-151.426 -237.727)" fill="#2d2a26"/>
      <path id="Path_1552" data-name="Path 1552" d="M168.406,245.838l.075-.014-.168-.2-.1.24.075-.007.014.1-.273.038-.015-.106.058-.01.146-.342-.219-.262-.058,0-.015-.106.293-.042.014.1-.068.013.154.187.09-.221-.068.005-.014-.1.264-.037.015.106-.057.011-.136.321.232.279.059-.006.015.106-.3.043Z" transform="translate(-162.694 -235.826)" fill="#2d2a26"/>
      <path id="Path_1553" data-name="Path 1553" d="M183.31,244.46l.062-.013.108-.74.2-.028.308.681.063-.005.015.106-.3.042-.014-.1.085-.017-.06-.134-.249.035-.021.146.087-.007.014.1-.287.04Zm.422-.324-.061-.137c-.029-.067-.055-.128-.078-.186h0c-.007.062-.015.127-.025.2l-.02.149Z" transform="translate(-177.234 -234.503)" fill="#2d2a26"/>
      <path id="Path_1554" data-name="Path 1554" d="M197.666,241.947l-.022-.117a.254.254,0,0,0-.084,0c-.082.011-.108.051-.1.1s.036.079.163.125c.166.06.212.106.228.227.021.148-.05.249-.242.276a.717.717,0,0,1-.2,0l-.03-.225.1-.014.021.119a.32.32,0,0,0,.1,0c.087-.013.116-.057.107-.119s-.037-.081-.171-.131c-.152-.056-.2-.1-.221-.227s.048-.23.237-.256a.632.632,0,0,1,.179,0l.028.224Z" transform="translate(-190.474 -232.634)" fill="#2d2a26"/>
      <path id="Path_1555" data-name="Path 1555" d="M233.847,236.835l-.027-.144a.227.227,0,0,0-.06,0c-.109.015-.157.067-.119.337.034.238.093.274.214.257a.46.46,0,0,0,.139-.045l.033.119a.651.651,0,0,1-.177.054c-.2.029-.308-.035-.354-.362-.05-.356.049-.456.251-.484a.559.559,0,0,1,.163,0l.033.253Z" transform="translate(-224.666 -227.773)" fill="#2d2a26"/>
      <path id="Path_1556" data-name="Path 1556" d="M243.6,235.116l.084-.017-.084-.6-.085.007-.015-.106.306-.043.015.106-.078.015.032.224.272-.038-.032-.224-.078.008-.015-.107.3-.043.015.106-.084.016.084.6.085-.007.015.106-.3.043-.015-.107.078-.014-.035-.248-.272.038.034.248.079-.008.015.106-.306.043Z" transform="translate(-234.134 -225.636)" fill="#2d2a26"/>
      <path id="Path_1557" data-name="Path 1557" d="M258.971,233.958l.083-.016-.084-.6-.085.007-.015-.106.312-.044.015.107-.084.016.084.6.085-.007.015.106-.312.044Z" transform="translate(-248.664 -224.596)" fill="#2d2a26"/>
      <path id="Path_1558" data-name="Path 1558" d="M268.267,232l-.027-.144a.227.227,0,0,0-.06,0c-.109.015-.157.067-.119.337.033.238.093.274.214.257a.459.459,0,0,0,.139-.045l.033.119a.651.651,0,0,1-.177.054c-.2.029-.308-.035-.354-.362-.05-.356.049-.456.251-.484a.545.545,0,0,1,.163,0l.033.253Z" transform="translate(-257.204 -223.203)" fill="#2d2a26"/>
      <path id="Path_1559" data-name="Path 1559" d="M278.021,230.427l.083-.016-.084-.6-.085.007-.015-.106.29-.041.014.1-.062.011.039.277.175-.3-.067.005-.015-.1.29-.04.015.106-.057.012-.183.312.279.288.06-.006.015.107-.3.042-.014-.1.066-.011-.259-.267.042.3.062-.007.014.1-.29.04Z" transform="translate(-266.673 -221.211)" fill="#2d2a26"/>
      <path id="Path_1560" data-name="Path 1560" d="M292.442,228.525l-.015-.068-.155.022.034.245.2-.028-.008-.1.1-.014.031.217-.535.075-.015-.106.084-.017-.084-.6-.085.007-.015-.107.535-.075.029.211-.1.014-.019-.092-.2.029.032.229.154-.022,0-.068.089-.012.034.245Z" transform="translate(-279.964 -219.661)" fill="#2d2a26"/>
      <path id="Path_1561" data-name="Path 1561" d="M304.235,226.617l-.015-.106.084-.016-.084-.6-.085.007-.015-.106.274-.039.265.4a2.527,2.527,0,0,1,.128.22h0c-.019-.08-.037-.167-.047-.232l-.045-.322-.079.008-.015-.1.28-.039.015.106-.075.014.1.711-.187.026-.266-.4a2.443,2.443,0,0,1-.128-.22h0c.019.08.038.167.047.232l.045.322.079-.007.015.1Z" transform="translate(-291.441 -217.496)" fill="#2d2a26"/>
      <path id="Path_1562" data-name="Path 1562" d="M277.951,148.362l-.046-.327a.027.027,0,0,1,.022-.03l.351-.049a.027.027,0,0,1,.03.022l.045.321a.024.024,0,0,1,0,.011l-.1.367a.026.026,0,0,1-.022.019l-.12.017a.026.026,0,0,1-.03-.03l.043-.281a.027.027,0,0,0-.03-.031l-.114.013a.026.026,0,0,1-.028-.022" transform="translate(-266.658 -144.01)" fill="#fff"/>
      <path id="Path_1563" data-name="Path 1563" d="M318.085,140.157h-.074v.282h-.068l0-.281h-.074V140.1h.216Z" transform="translate(-304.439 -136.584)" fill="#2d2a26"/>
      <path id="Path_1564" data-name="Path 1564" d="M322.453,140.121l.047.238h0l.05-.238h.1v.338h-.063v-.269h0l-.061.269h-.053l-.059-.27h0l0,.269h-.062l0-.338Z" transform="translate(-308.674 -136.603)" fill="#2d2a26"/>
      <path id="Path_1565" data-name="Path 1565" d="M98.149,248.338a5.5,5.5,0,0,1-9.294.187l-1.384.195a6.79,6.79,0,0,0,12.232-.6Z" transform="translate(-86.632 -238.7)" fill="#f6b318"/>
      <path id="Path_1566" data-name="Path 1566" d="M78.32,80.581a5.5,5.5,0,0,1,9.516-1.337l1.421-.2A6.79,6.79,0,0,0,76.9,80.781Z" transform="translate(-76.64 -75.777)" fill="#f6b318"/>
      <path id="Path_1567" data-name="Path 1567" d="M176.434,110.48l-1.024,2.2.823-.452.7.628Z" transform="translate(-169.766 -108.583)" fill="#f6b318"/>
      <path id="Path_1568" data-name="Path 1568" d="M170.7,124.024l-.825-.094.613.551Z" transform="translate(-164.528 -121.298)" fill="#f6b318"/>
      <path id="Path_1569" data-name="Path 1569" d="M199.63,127.34l.1.495.725-.4Z" transform="translate(-192.662 -124.522)" fill="#f6b318"/>
    </g>
  </g>
</svg>
