<svg xmlns="http://www.w3.org/2000/svg" version="1.1" xmlns:xlink="http://www.w3.org/1999/xlink" xmlns:svgjs="http://svgjs.com/svgjs" x="0" y="0" viewBox="0 0 612 612" style="enable-background:new 0 0 512 512" xml:space="preserve" class=""><g><g><g id="group-add"><path d="M204,267.75h-76.5v-76.5h-51v76.5H0v51h76.5v76.5h51v-76.5H204V267.75z M459,293.25c43.35,0,76.5-33.15,76.5-76.5&#10;&#9;&#9;&#9;s-33.15-76.5-76.5-76.5c-7.65,0-15.3,2.55-22.95,2.55c15.3,22.95,22.95,45.9,22.95,73.95s-7.65,51-22.95,73.95&#10;&#9;&#9;&#9;C443.7,290.7,451.35,293.25,459,293.25z M331.5,293.25c43.35,0,76.5-33.15,76.5-76.5s-33.15-76.5-76.5-76.5&#10;&#9;&#9;&#9;c-43.35,0-76.5,33.15-76.5,76.5S288.15,293.25,331.5,293.25z M499.8,349.35c20.4,17.851,35.7,43.351,35.7,71.4v51H612v-51&#10;&#9;&#9;&#9;C612,382.5,550.8,357,499.8,349.35z M331.5,344.25c-51,0-153,25.5-153,76.5v51h306v-51C484.5,369.75,382.5,344.25,331.5,344.25z" fill="#ffffff" data-original="#ffffff"/></g></g><g></g><g></g><g></g><g></g><g></g><g></g><g></g><g></g><g></g><g></g><g></g><g></g><g></g><g></g><g></g></g></svg>