<svg xmlns="http://www.w3.org/2000/svg" xmlns:xlink="http://www.w3.org/1999/xlink" width="16" height="15" viewBox="0 0 16 15">
  <defs>
    <clipPath id="clip-path">
      <rect id="Rectangle_1884" data-name="Rectangle 1884" width="16" height="15" transform="translate(56 271.059)" fill="#fff" stroke="#707070" stroke-width="1"/>
    </clipPath>
  </defs>
  <g id="Mask_Group_11" data-name="Mask Group 11" transform="translate(-56 -271.059)" clip-path="url(#clip-path)">
    <g id="Search_results_for_Notification_-_Flaticon-2" data-name="Search results for Notification - Flaticon-2" transform="translate(57.312 271)">
      <g id="Group_1959" data-name="Group 1959" transform="translate(0)">
        <path id="Path_1455" data-name="Path 1455" d="M8.977,18.657A2.215,2.215,0,0,0,11,17.33H6.95A2.215,2.215,0,0,0,8.977,18.657Z" transform="translate(-2.341 -3.557)"/>
        <path id="Path_1456" data-name="Path 1456" d="M12.358,7.31V6.341A4.58,4.58,0,0,0,9.114,1.966V1.327a1.327,1.327,0,1,0-2.654,0v.639A4.579,4.579,0,0,0,3.215,6.341V7.31a6.947,6.947,0,0,1-1.941,4.83.442.442,0,0,0,.319.749H13.98a.442.442,0,0,0,.319-.749A6.947,6.947,0,0,1,12.358,7.31ZM8.229,1.791c-.146-.014-.293-.021-.442-.021s-.3.007-.442.021V1.327a.442.442,0,0,1,.885,0Z" transform="translate(-1.15)"/>
        <path id="Path_1457" data-name="Path 1457" d="M16.268,6.733a.442.442,0,1,0,.885,0,6.593,6.593,0,0,0-1.944-4.692.442.442,0,1,0-.626.626,5.714,5.714,0,0,1,1.684,4.067Z" transform="translate(-3.881 -0.392)"/>
        <path id="Path_1458" data-name="Path 1458" d="M1.593,7.176a.442.442,0,0,0,.442-.442A5.714,5.714,0,0,1,3.72,2.667a.442.442,0,0,0-.626-.626A6.593,6.593,0,0,0,1.15,6.733.442.442,0,0,0,1.593,7.176Z" transform="translate(-1.15 -0.392)"/>
      </g>
    </g>
  </g>
</svg>
