<svg id="Phone" xmlns="http://www.w3.org/2000/svg" width="18.909" height="18.909" viewBox="0 0 18.909 18.909">
  <rect id="Rectangle_320" data-name="Rectangle 320" width="18" height="18" transform="translate(0.454 0.455)" fill="none"/>
  <path id="Path_110" data-name="Path 110" d="M10.974,13.506,13,11.649a.62.62,0,0,1,.506-.169l.338.169,4.727,2.195c.338.169.338.338.338.675a4.28,4.28,0,0,1-1.351,3.039,4.836,4.836,0,0,1-3.545,1.351,10.287,10.287,0,0,1-4.727-1.182,22.132,22.132,0,0,1-4.727-3.377,28.757,28.757,0,0,1-2.532-3.714A23.337,23.337,0,0,1,.338,6.922,10.39,10.39,0,0,1,0,3.714,4.437,4.437,0,0,1,1.182,1.182,5.134,5.134,0,0,1,4.39,0a.877.877,0,0,1,.675.338L7.6,5.065a.589.589,0,0,0,.169.338.62.62,0,0,1-.169.506L5.4,7.935a.754.754,0,0,0,0,.844,16.122,16.122,0,0,0,2.026,2.7,17.047,17.047,0,0,0,2.7,2.195C10.468,13.844,10.805,13.844,10.974,13.506Z" transform="translate(0 0)" fill="#2d2926"/>
</svg>
