<svg xmlns="http://www.w3.org/2000/svg" width="12.111" height="16.25" viewBox="0 0 12.111 16.25">
  <g id="Search_results_for_Rewards_-_Flaticon-2" data-name="Search results for Rewards - Flaticon-2" transform="translate(-6.857 -1)">
    <path id="Path_1459" data-name="Path 1459" d="M16.073,5.884a4.33,4.33,0,1,0,4.33,4.33,4.33,4.33,0,0,0-4.33-4.33Zm2.875,3.591-1.731,1.253a.025.025,0,0,0-.01.029l.657,2.029a.026.026,0,0,1-.04.029l-1.731-1.253a.025.025,0,0,0-.03,0l-1.731,1.253a.026.026,0,0,1-.04-.029l.676-2.028a.026.026,0,0,0-.009-.029L13.229,9.475a.026.026,0,0,1,.018-.047h2.117a.025.025,0,0,0,.024-.018l.667-2.034a.025.025,0,0,1,.049,0l.667,2.034a.025.025,0,0,0,.024.018h2.139a.026.026,0,0,1,.013.047Z" transform="translate(-3.16 -3.159)"/>
    <path id="Path_1460" data-name="Path 1460" d="M12.913,1a6.056,6.056,0,1,0,6.055,6.055A6.056,6.056,0,0,0,12.913,1Zm0,11.092a5.036,5.036,0,1,1,5.036-5.037,5.036,5.036,0,0,1-5.036,5.037Z" transform="translate(0 0)"/>
    <path id="Path_1461" data-name="Path 1461" d="M9.22,37.134l1.946-.173.7,1.432.158.329,1.848-3.462a6.706,6.706,0,0,1-3.1-1.06Z" transform="translate(-1.528 -21.472)"/>
    <path id="Path_1462" data-name="Path 1462" d="M25.722,35.228l1.844,3.462.158-.329.7-1.432,1.946.173-1.558-2.951A6.717,6.717,0,0,1,25.722,35.228Z" transform="translate(-12.201 -21.44)"/>
  </g>
</svg>
