<svg xmlns="http://www.w3.org/2000/svg" version="1.1" xmlns:xlink="http://www.w3.org/1999/xlink" xmlns:svgjs="http://svgjs.com/svgjs" x="0" y="0" viewBox="0 0 96 96" style="enable-background:new 0 0 512 512" xml:space="preserve"><g><path xmlns="http://www.w3.org/2000/svg" id="Shop_2_" d="m82 46v38c0 1.104-.896 2-2 2h-36v-30c0-1.104-.896-2-2-2h-16c-1.104 0-2 .896-2 2v30h-8c-1.104 0-2-.896-2-2v-38h.68c2.92 0 5.6-1.43 7.26-3.7.04.04.07.1.1.15 1.72 2.25 4.33 3.55 7.17 3.55h2.52c3.03 0 5.72-1.5 7.36-3.82.13.16.26.33.4.49 1.89 2.12 4.61 3.33 7.45 3.33h2.12c2.84 0 5.56-1.21 7.45-3.33.14-.16.27-.33.4-.49 1.64 2.32 4.33 3.82 7.36 3.82h2.52c2.84 0 5.45-1.3 7.17-3.55.03-.05.06-.11.1-.15 1.66 2.27 4.34 3.7 7.26 3.7zm-10 26v-16c0-1.104-.896-2-2-2h-14c-1.104 0-2 .896-2 2v16c0 1.104.896 2 2 2h14c1.104 0 2-.896 2-2zm-50.101-62c-1.581 0-3.013.931-3.655 2.375l-10.044 22.595c-.724 1.635-.549 3.43.48 4.898.968 1.38 2.609 2.132 4.294 2.132h1.706c2.24 0 4.22-1.51 4.82-3.66l4.63-16.69 3.24-11.65zm9.621 0-7.13 25.66c-.42 1.52-.11 3.11.84 4.37.95 1.25 2.4 1.97 3.98 1.97h2.52c2.56 0 4.69-1.91 4.97-4.45l3.07-27.55zm20.69 0h-8.42l-2.82 25.34c-.18 1.69.36 3.39 1.5 4.66 1.15 1.29 2.74 2 4.47 2h2.12c1.73 0 3.32-.71 4.47-2 1.14-1.27 1.68-2.97 1.5-4.66zm12.27 0h-8.25l3.07 27.55c.28 2.54 2.41 4.45 4.97 4.45h2.52c1.58 0 3.03-.72 3.98-1.97.95-1.26 1.26-2.85.84-4.37zm13.276 2.375c-.642-1.444-2.075-2.375-3.655-2.375h-5.471l3.24 11.65 4.63 16.69c.6 2.15 2.58 3.66 4.82 3.66h1.706c1.686 0 3.327-.752 4.294-2.132 1.03-1.468 1.204-3.264.48-4.898z" fill="currentColor" data-original="#000000"/></g></svg>