<svg xmlns="http://www.w3.org/2000/svg" width="15.611" height="14.667" viewBox="0 0 15.611 14.667">
  <g id="Search_results_for_Track_order_-_Flaticon-2" data-name="Search results for Track order - Flaticon-2" transform="translate(0 -0.741)">
    <g id="Group_1952" data-name="Group 1952" transform="translate(0 0.741)">
      <g id="Group_1951" data-name="Group 1951">
        <g id="Group_1950" data-name="Group 1950">
          <circle id="Ellipse_308" data-name="Ellipse 308" cx="0.61" cy="0.61" r="0.61" transform="translate(1.22 4.635)" fill="#2d2926"/>
          <circle id="Ellipse_309" data-name="Ellipse 309" cx="0.61" cy="0.61" r="0.61" transform="translate(1.22 13.447)" fill="#2d2926"/>
          <circle id="Ellipse_310" data-name="Ellipse 310" cx="0.61" cy="0.61" r="0.61" transform="translate(1.22 9.026)" fill="#2d2926"/>
          <circle id="Ellipse_311" data-name="Ellipse 311" cx="0.61" cy="0.61" r="0.61" transform="translate(1.22 6.83)" fill="#2d2926"/>
          <circle id="Ellipse_312" data-name="Ellipse 312" cx="0.61" cy="0.61" r="0.61" transform="translate(1.22 11.252)" fill="#2d2926"/>
          <circle id="Ellipse_313" data-name="Ellipse 313" cx="0.61" cy="0.61" r="0.61" transform="translate(3.476 13.447)" fill="#2d2926"/>
          <path id="Path_1449" data-name="Path 1449" d="M17.73,5.184a4.39,4.39,0,1,0,4.39,4.39A4.395,4.395,0,0,0,17.73,5.184Zm0,6.271a1.881,1.881,0,1,1,1.881-1.881A1.883,1.883,0,0,1,17.73,11.455Z" transform="translate(-6.998 -4.327)" fill="#2d2926"/>
          <circle id="Ellipse_314" data-name="Ellipse 314" cx="0.61" cy="0.61" r="0.61" transform="translate(10.062 13.447)" fill="#2d2926"/>
          <path id="Path_1450" data-name="Path 1450" d="M13.863.741a4.975,4.975,0,0,0-4.97,4.968v.133c0,1.381.784,2.981,2.33,4.755a20.007,20.007,0,0,0,2.257,2.2l.383.309.383-.309A20,20,0,0,0,16.5,10.6c1.546-1.774,2.33-3.374,2.33-4.755V5.708A4.975,4.975,0,0,0,13.863.741Zm3.751,4.968v.133c0,1.059-.7,2.422-2.018,3.94-.66.76-1.328.029-1.732.387-.4-.355-1.062.382-1.72-.373-1.328-1.524-2.03-2.891-2.03-3.954V5.708a3.751,3.751,0,0,1,7.5,0Z" transform="translate(-3.222 -0.741)" fill="#2d2926"/>
          <path id="Path_1451" data-name="Path 1451" d="M1.83.741a1.83,1.83,0,1,0,1.83,1.83A1.832,1.832,0,0,0,1.83.741Zm0,2.439a.61.61,0,1,1,.61-.61A.611.611,0,0,1,1.83,3.18Z" transform="translate(0 -0.741)" fill="#2d2926"/>
          <circle id="Ellipse_315" data-name="Ellipse 315" cx="0.61" cy="0.61" r="0.61" transform="translate(5.672 13.447)" fill="#2d2926"/>
          <circle id="Ellipse_316" data-name="Ellipse 316" cx="0.61" cy="0.61" r="0.61" transform="translate(7.867 13.447)" fill="#2d2926"/>
        </g>
      </g>
    </g>
  </g>
</svg>
